<svg xmlns="http://www.w3.org/2000/svg" viewBox="0 0 7.914 4.705">
  <g id="Group_2" data-name="Group 2" transform="translate(-231.691 -1663)">
    <path class="svgColor" data-name="Path 1" d="M.573,0a.639.639,0,0,1,.573.689V4.82a.639.639,0,0,1-.573.689A.639.639,0,0,1,0,4.82V.689A.639.639,0,0,1,.573,0Z" transform="translate(231.691 1663.81) rotate(-45)" fill="#3d8693"/>
    <path class="svgColor" data-name="Path 2" d="M.573,5.508a.639.639,0,0,0,.573-.689V.689A.639.639,0,0,0,.573,0,.639.639,0,0,0,0,.689V4.82A.639.639,0,0,0,.573,5.508Z" transform="translate(235.71 1667.705) rotate(-135)" fill="#3d8693"/>
  </g>
</svg>
