<svg xmlns="http://www.w3.org/2000/svg" width="5.5162mm" height="5.8046mm" viewBox="0 0 15.6364 16.4541">
  <title>Bijlagen.inline</title>
  <g id="Layer_2" data-name="Layer 2">
    <g id="Layer_1-2" data-name="Layer 1">
      <g id="Icon_feather-paperclip" data-name="Icon feather-paperclip">
        <path id="changeColor" d="M5.1514,16.4541a5.1565,5.1565,0,0,1-3.6772-8.769L8.0889,1.0718a3.7288,3.7288,0,0,1,5.2788,5.2676l-6.5659,6.559A2.3021,2.3021,0,0,1,3.523,9.666L9.6011,3.5952a.8749.8749,0,0,1,1.2363,1.2383L4.7837,10.8809a.5563.5563,0,0,0-.0044.7929.5505.5505,0,0,0,.78-.0078l6.5664-6.5591a1.9789,1.9789,0,0,0-2.8047-2.792L2.7725,8.8623a3.4062,3.4062,0,0,0,2.4116,5.8418A3.3847,3.3847,0,0,0,7.583,13.6836l6.5591-6.5581A.8753.8753,0,1,1,15.38,8.3628L8.8267,14.916A5.1172,5.1172,0,0,1,5.2,16.4531C5.1836,16.4541,5.1675,16.4541,5.1514,16.4541Z" fill="#3b4d5e"/>
      </g>
    </g>
  </g>
</svg>
