<svg xmlns="http://www.w3.org/2000/svg" preserveAspectRatio="none" viewBox="0 0 2103 434.0677">
  <title>Waves.inline</title>
  <g id="Layer_2" data-name="Layer 2">
    <g id="Layer_1-2" data-name="Layer 1">
      <path d="M0,42.4462c18.8325,1.5694,37.5334,3.7809,56.004,6.4205C199.0321,69.436,342.0931,113.0478,485.3515,93.43,617.5077,75.3334,742.5422,4.0184,875.5373.1661c163.7849-4.7322,317.06,93.1209,480.2527,108.8392,159.3277,15.3378,316.9777-48.2964,476.8974-51.53C1923.182,55.6677,2012.5252,73.1694,2102,90.053" fill="none"/>
      <path d="M2102,159.6545V432.6219H0V76.7243q17.1219.1333,34.2768.7111c188.2918,6.453,373.7711,56.14,560.5333,72.1572q17.64,1.52,35.28,2.6133a1108.8614,1108.8614,0,0,0,131.8108.711c93.34-5.3864,185.3148-15.8038,276.9771-26.2034h.033q16.3571-1.84,32.7141-3.6977c142.5018-16.0526,284.5431-30.5765,430.0383-24.6034,203.1111,8.3552,388.9852,34.5231,590.55,60.051C2095.47,158.8723,2098.7434,159.2812,2102,159.6545Z" fill="#f5f4f5" opacity="0.47"/>
      <path d="M1,144.4674v289.6H2103V56.4839q-17.1219.1415-34.2768.7545c-188.2918,6.8462-373.7711,59.5608-560.5333,76.554q-17.64,1.6125-35.28,2.7725a1045.309,1045.309,0,0,1-131.8108.7544c-93.34-5.7147-185.3149-16.7669-276.9772-27.8h-.0329q-16.3572-1.9521-32.7142-3.923c-142.5018-17.0308-284.543-32.44-430.0383-26.1027-203.1111,8.8644-388.9851,36.6268-590.55,63.71C7.53,143.6375,4.2566,144.0713,1,144.4674Z" fill="#f5f4f5" opacity="0.47"/>
      <path d="M2102,157.6179V432.3866H0V119.4492c18.8325,1.2582,37.5334,3.0314,56.004,5.1476,143.0281,16.4914,286.0891,51.4762,429.3475,35.7283,36.9247-4.0418,73.3068-11.4392,109.4586-20.0376,93.2084-22.211,184.9036-52.5248,280.7272-54.7554,66.6456-1.5443,131.5477,10.543,196.0879,26.2528,94.08,22.9165,187.3709,53.5544,284.1648,61.047,159.3276,12.2972,316.9777-38.7406,476.8974-41.3335C1923.182,130.0494,2012.5252,144.0815,2102,157.6179Z" fill="#f5f4f5"/>
    </g>
  </g>
</svg>
