<svg xmlns="http://www.w3.org/2000/svg"  viewBox="0 0 14.841 14.842">
  <path id="Icon_metro-cross" data-name="Icon metro-cross" d="M17.277,13.852h0l-4.5-4.5,4.5-4.5h0a.465.465,0,0,0,0-.656L15.15,2.064a.465.465,0,0,0-.656,0h0l-4.5,4.5-4.5-4.5h0a.465.465,0,0,0-.656,0L2.706,4.191a.465.465,0,0,0,0,.656h0l4.5,4.5-4.5,4.5h0a.465.465,0,0,0,0,.656l2.127,2.127a.465.465,0,0,0,.656,0h0l4.5-4.5,4.5,4.5h0a.465.465,0,0,0,.656,0l2.127-2.127a.465.465,0,0,0,0-.656Z" transform="translate(-2.571 -1.928)" fill="#fff"/>
</svg>
