<svg xmlns="http://www.w3.org/2000/svg" preserveAspectRatio="none" viewBox="0 0 775.54 237.0726">
  <title>Waves 2</title>
  <g id="Layer_2" data-name="Layer 2">
    <g id="Layer_1-2" data-name="Layer 1">
      <path d="M773.5757,146.6979H0V70.6543C68.2567,45.0879,146.5428,36.4084,233.6715,46.399c3.5851.413,7.0961.9444,10.5644,1.2521C320.9909,54.4592,357.7917,73.248,417.71,81.3828c64.3911,8.7421,124.4763-7.8947,172.003-22.0042,39.3552-11.6836,78.56-37.63,98.388-40.5851C752.4074,9.2085,760.5543,82.9985,773.5757,146.6979Z" fill="#fff" opacity="0.25"/>
      <path d="M775.54.0325v237.04H0v-91.57H.73v-33.7c55.44-27.06,142.52-73.69,229.99-66.41,125.64,10.45,154.41,48.57,247.95,48.57,1.6,0,74.86-4.07,116.6-17.46C644.35,60.7625,775.54-1.6275,775.54.0325Z" fill="#f4f4f4"/>
    </g>
  </g>
</svg>
