<svg id="Artwork_1" data-name="Artwork 1" xmlns="http://www.w3.org/2000/svg" preserveAspectRatio="none" viewBox="0 0 279.068 182.497">
  <g id="Group_1" data-name="Group 1" transform="translate(0 0)">
    <path id="Path_17" data-name="Path 17" d="M0,14.988V175.231H279.068V20.91c-26.632-2.175-52.7-7.251-78.762-11.843-31.873-5.559-63.888-10.514-96.895-8.7C77.2,2.057,51.706,8.221,25.5,12.088Q12.962,14.082,0,14.988Z" transform="translate(0 0.015)" fill="#fff" opacity="0.5"/>
    <path id="Path_18" data-name="Path 18" d="M0,31.011v144.17H279.068V12.884c-14.733-4.592-30.032-7.734-46.748-6.647a116.518,116.518,0,0,0-28.048,4.834,180.371,180.371,0,0,1-83.3,3.867h-.567c-27.907-5.8-54.4-2.3-80.179,4.23C26.632,22.552,13.316,26.781,0,31.011Z" transform="translate(0 1.273)" fill="#fff" opacity="0.5"/>
    <path id="Path_19" data-name="Path 19" d="M133.16,31.1C103.411,23.363,77.913,6.445,46.748,5.236,30.032,4.149,14.733,7.411,0,12.245V181.431H279.068V9.345l-7.083,1.088C223.821,19.5,181.324,44.028,133.16,31.1Z" transform="translate(0 1.066)" fill="#fff"/>
  </g>
</svg>
