<svg xmlns="http://www.w3.org/2000/svg" width="137.9258" height="50.96" viewBox="0 0 137.9258 50.96">
  <title>menu.inline</title>
    <g >
      <path id="menu" d="M137.2663,49.17a4.0176,4.0176,0,0,1-5.55,1.13L68.9665,8.8,6.2067,50.3a4.0059,4.0059,0,0,1-5.54-1.13,3.9993,3.9993,0,0,1,1.13-5.55L66.6564.73a4.02,4.02,0,0,1,.44-.27,4.2779,4.2779,0,0,1,.44-.2,4.195,4.195,0,0,1,.47-.14,3.7346,3.7346,0,0,1,.46-.09h.03a3.6738,3.6738,0,0,1,.46-.03h.01a3.6749,3.6749,0,0,1,.46.03h.03a3.7529,3.7529,0,0,1,.46.09,4.206,4.206,0,0,1,.47.14,4.2794,4.2794,0,0,1,.44.2,3.8391,3.8391,0,0,1,.34.2l.1.07,64.87,42.89A4.0175,4.0175,0,0,1,137.2663,49.17Z" fill="#343333"/>
    </g>
</svg>
