<svg xmlns="http://www.w3.org/2000/svg" width="50.531" height="45" viewBox="0 0 50.531 45">
  <g id="Group_76" data-name="Group 76" transform="translate(-676 -1232.402)">
    <path id="Path_341" data-name="Path 341" d="M226.231,100.505c0-3.347-4.192-6.52-10.619-8.487,1.483-6.551.824-11.762-2.081-13.431a4.516,4.516,0,0,0-2.307-.577v2.3a2.385,2.385,0,0,1,1.174.268c1.4.8,2.008,3.862,1.535,7.8-.113.968-.3,1.988-.525,3.028a49.918,49.918,0,0,0-6.54-1.123,50.246,50.246,0,0,0-4.285-5.15c3.358-3.121,6.51-4.831,8.652-4.831V78h0c-2.832,0-6.54,2.019-10.29,5.521-3.749-3.481-7.457-5.48-10.29-5.48v2.3c2.132,0,5.294,1.7,8.652,4.8a48.653,48.653,0,0,0-4.254,5.14A48.1,48.1,0,0,0,188.5,91.41c-.237-1.03-.412-2.029-.536-2.987-.484-3.935.113-6.994,1.5-7.807a2.292,2.292,0,0,1,1.184-.268v-2.3h0a4.593,4.593,0,0,0-2.328.577c-2.894,1.669-3.543,6.87-2.05,13.4-6.406,1.978-10.578,5.14-10.578,8.477s4.192,6.52,10.619,8.487c-1.483,6.551-.824,11.762,2.081,13.431a4.528,4.528,0,0,0,2.317.577c2.832,0,6.54-2.019,10.29-5.521,3.749,3.481,7.457,5.48,10.29,5.48a4.592,4.592,0,0,0,2.328-.577c2.894-1.669,3.543-6.87,2.05-13.4C222.06,107.015,226.231,103.842,226.231,100.505Zm-13.41-6.87c-.381,1.329-.855,2.7-1.39,4.068-.422-.824-.865-1.648-1.349-2.472s-.978-1.627-1.483-2.41C210.06,93.038,211.471,93.306,212.821,93.635ZM208.1,104.6c-.8,1.39-1.627,2.709-2.482,3.935-1.535.134-3.09.206-4.656.206s-3.111-.072-4.635-.2q-1.282-1.839-2.493-3.914-1.174-2.024-2.142-4.1c.639-1.38,1.36-2.76,2.132-4.11.8-1.39,1.627-2.709,2.482-3.935,1.535-.134,3.09-.206,4.656-.206s3.111.072,4.635.2q1.282,1.839,2.493,3.914,1.174,2.024,2.142,4.1C209.587,101.875,208.876,103.255,208.1,104.6Zm3.327-1.339c.556,1.38,1.03,2.76,1.421,4.1-1.349.33-2.771.608-4.244.824.5-.793,1.009-1.607,1.483-2.441S211.008,104.089,211.43,103.266Zm-10.444,10.99a42.46,42.46,0,0,1-2.863-3.3c.927.041,1.875.072,2.832.072s1.926-.021,2.863-.072A40.209,40.209,0,0,1,200.986,114.255Zm-7.663-6.067c-1.463-.216-2.874-.484-4.223-.814.381-1.329.855-2.7,1.391-4.068.422.824.865,1.648,1.349,2.472S192.818,107.406,193.323,108.189Zm7.612-21.434a42.465,42.465,0,0,1,2.863,3.3c-.927-.041-1.875-.072-2.832-.072s-1.926.021-2.863.072A40.2,40.2,0,0,1,200.935,86.755Zm-7.622,6.067c-.5.793-1.009,1.607-1.483,2.441s-.917,1.648-1.339,2.472c-.556-1.38-1.03-2.76-1.421-4.1C190.419,93.316,191.84,93.038,193.313,92.821Zm-9.321,12.9c-3.646-1.555-6-3.595-6-5.212s2.359-3.667,6-5.212c.886-.381,1.854-.721,2.853-1.04a49.468,49.468,0,0,0,2.317,6.273,48.764,48.764,0,0,0-2.287,6.242C185.856,106.448,184.888,106.1,183.991,105.717Zm5.541,14.718c-1.4-.8-2.008-3.862-1.535-7.8.113-.968.3-1.988.525-3.028a49.913,49.913,0,0,0,6.54,1.123,50.238,50.238,0,0,0,4.285,5.15c-3.358,3.121-6.51,4.831-8.652,4.831A2.458,2.458,0,0,1,189.533,120.435Zm24.431-7.848c.484,3.935-.113,6.994-1.5,7.807a2.292,2.292,0,0,1-1.185.268c-2.132,0-5.294-1.7-8.652-4.8a48.647,48.647,0,0,0,4.254-5.14,48.1,48.1,0,0,0,6.551-1.133A28.835,28.835,0,0,1,213.964,112.587Zm3.965-6.87c-.886.381-1.854.721-2.853,1.04a49.471,49.471,0,0,0-2.317-6.273,48.777,48.777,0,0,0,2.287-6.242c1.02.319,1.988.669,2.894,1.051,3.646,1.555,6,3.595,6,5.212S221.576,104.172,217.929,105.717Z" transform="translate(500.3 1154.402)" fill="#2b2b2b"/>
    <circle id="Ellipse_7" data-name="Ellipse 7" cx="4.72" cy="4.72" r="4.72" transform="translate(696.535 1250.187)" fill="#2b2b2b"/>
  </g>
</svg>
