<svg xmlns="http://www.w3.org/2000/svg" viewBox="0 0 35.615 35.615">
  <g id="Group_1" data-name="Group 1" transform="translate(1565.364 -1657.75)">
    <g id="Path_21" data-name="Path 21" transform="translate(-1565.364 1657.75)" fill="none">
      <path d="M17.807,0A17.807,17.807,0,1,1,0,17.807,17.807,17.807,0,0,1,17.807,0Z" stroke="none"/>
      <path id="changeColor" d="M 17.80731201171875 3.000003814697266 C 13.85213279724121 3.000003814697266 10.13369178771973 4.540231704711914 7.33696174621582 7.33696174621582 C 4.540231704711914 10.13369178771973 3.000003814697266 13.85213279724121 3.000003814697266 17.80731201171875 C 3.000003814697266 21.76249313354492 4.540231704711914 25.48093223571777 7.33696174621582 28.27766227722168 C 10.13369178771973 31.07439231872559 13.85213279724121 32.6146240234375 17.80731201171875 32.6146240234375 C 21.76249313354492 32.6146240234375 25.48093223571777 31.07439231872559 28.27766227722168 28.27766227722168 C 31.07439231872559 25.48093223571777 32.6146240234375 21.76249313354492 32.6146240234375 17.80731201171875 C 32.6146240234375 13.85213279724121 31.07439231872559 10.13369178771973 28.27766227722168 7.33696174621582 C 25.48093223571777 4.540231704711914 21.76249313354492 3.000003814697266 17.80731201171875 3.000003814697266 M 17.80731201171875 3.814697265625e-06 C 27.64202117919922 3.814697265625e-06 35.61462020874023 7.972602844238281 35.61462020874023 17.80731201171875 C 35.61462020874023 27.64202117919922 27.64202117919922 35.61462020874023 17.80731201171875 35.61462020874023 C 7.972602844238281 35.61462020874023 3.814697265625e-06 27.64202117919922 3.814697265625e-06 17.80731201171875 C 3.814697265625e-06 7.972602844238281 7.972602844238281 3.814697265625e-06 17.80731201171875 3.814697265625e-06 Z" stroke="none" fill="#3d8693"/>
    </g>
    <path id="changeColor" data-name="Path 20" d="M2.394,13.221a6.258,6.258,0,0,1,.435-2.394,3.973,3.973,0,0,1,1.8-1.85q.408-.245,1.007-.558A8.2,8.2,0,0,0,6.8,7.672a4.3,4.3,0,0,0,.966-1.02A2.351,2.351,0,0,0,8.161,5.3,2.222,2.222,0,0,0,7.944,4.3a2.292,2.292,0,0,0-.571-.735,2.367,2.367,0,0,0-.83-.449,3.2,3.2,0,0,0-.966-.15,2.8,2.8,0,0,0-1.088.2,3.71,3.71,0,0,0-.884.517,4.349,4.349,0,0,0-.707.707,7.767,7.767,0,0,0-.53.748L0,3.509a5.287,5.287,0,0,1,.939-1.5A5.757,5.757,0,0,1,2.272.911,6.244,6.244,0,0,1,3.89.231,6.964,6.964,0,0,1,5.686,0a7.124,7.124,0,0,1,2.04.3,5.173,5.173,0,0,1,1.809.952,4.931,4.931,0,0,1,1.306,1.673,5.451,5.451,0,0,1,.5,2.435,5.259,5.259,0,0,1-.2,1.537,4.28,4.28,0,0,1-.585,1.211,5.1,5.1,0,0,1-.9.979,10.235,10.235,0,0,1-1.17.843q-.544.326-1.088.626a6.54,6.54,0,0,0-.993.667,3.238,3.238,0,0,0-.735.843,2.208,2.208,0,0,0-.286,1.156Z" transform="matrix(0.999, -0.035, 0.035, 0.999, -1552.911, 1666.668)" fill="#3d8693"/>
    <ellipse id="changeColor" data-name="Ellipse 2" cx="1.881" cy="1.881" rx="1.881" ry="1.881" transform="matrix(0.999, -0.035, 0.035, 0.999, -1550.258, 1681.008)" fill="#3d8693"/>
  </g>
</svg>
